# xmcd CD database file
#
# Track frame offsets:
#	150
#	32990
#	52545
#	58080
#	75767
#	91165
#	96750
#	122472
#	159535
#	176292
#
# Disc length: 2624 seconds
#
# Revision: 0
# Processed by: cddbd v1.5.2PL0 Copyright (c) Steve Scherf et al.
# Submitted via: CDex 1.70beta2
#
DISCID=640a3e0a
DTITLE=Oneness Of Juju - African Rhythms
DYEAR=1975
DGENRE=Jazz
TTITLE0=African Rhythms
TTITLE1=Kazi
TTITLE2=Funky Wood
TTITLE3=Tarishi
TTITLE4=Mashariki
TTITLE5=Chants
TTITLE6=Don't Give Up
TTITLE7=Incognito
TTITLE8=Poo Too
TTITLE9=Liberation Dues
EXTD=YEAR: 1975
EXTT0=
EXTT1=
EXTT2=
EXTT3=
EXTT4=
EXTT5=
EXTT6=
EXTT7=
EXTT8=
EXTT9=
PLAYORDER=
